<?xml version="1.0" encoding="UTF-8" standalone="no"?>
<svg
   xmlns:dc="http://purl.org/dc/elements/1.1/"
   xmlns:cc="http://creativecommons.org/ns#"
   xmlns:rdf="http://www.w3.org/1999/02/22-rdf-syntax-ns#"
   xmlns:svg="http://www.w3.org/2000/svg"
   xmlns="http://www.w3.org/2000/svg"
   version="1.1"
   id="svg2"
   viewBox="0 0 646.99998 164.99999"
   height="165"
   width="647">
  <defs
     id="defs4" />
  <metadata
     id="metadata7">
    <rdf:RDF>
      <cc:Work
         rdf:about="">
        <dc:format>image/svg+xml</dc:format>
        <dc:type
           rdf:resource="http://purl.org/dc/dcmitype/StillImage" />
        <dc:title></dc:title>
      </cc:Work>
    </rdf:RDF>
  </metadata>
  <g
     transform="translate(0,-887.36225)"
     id="layer1">
    <rect
       ry="25"
       style="fill:#0088aa"
       y="913.04114"
       x="37.374298"
       height="96.469566"
       width="554.06866"
       id="rect4144-1" />
    <rect
       ry="25"
       style="fill:#ffccaa"
       y="921.62744"
       x="46.465668"
       height="96.469566"
       width="554.06866"
       id="rect4144" />
    <g
       id="text3336"
       style="font-style:normal;font-weight:normal;font-size:57.02125931px;line-height:125%;font-family:sans-serif;letter-spacing:0px;word-spacing:0px;fill:#000000;fill-opacity:1;stroke:none;stroke-width:1px;stroke-linecap:butt;stroke-linejoin:miter;stroke-opacity:1">
      <path
         id="path4284"
         style="font-style:normal;font-variant:normal;font-weight:bold;font-stretch:normal;font-size:71.27657318px;font-family:'Liberation Mono';-inkscape-font-specification:'Liberation Mono Bold'"
         d="m 80.139925,969.6534 q 0,7.83067 2.436211,12.07664 2.436211,4.24597 7.27383,4.24597 1.566136,0 2.853847,-0.62646 1.287712,-0.62645 2.296999,-1.74015 1.044091,-1.1485 1.809757,-2.71463 0.800469,-1.56614 1.39212,-3.4107 l 9.501221,1.80976 q -1.07889,3.4455 -2.71463,6.19494 -1.60094,2.71463 -3.82833,4.6288 -2.192594,1.87936 -5.046441,2.92345 -2.819045,1.00929 -6.368952,1.00929 -5.290058,0 -9.083587,-1.74015 -3.793528,-1.77496 -6.229739,-4.97683 -2.436211,-3.20188 -3.584711,-7.69147 -1.148499,-4.48959 -1.148499,-9.98846 0,-5.81211 1.183302,-10.26689 1.183303,-4.45479 3.619514,-7.51745 2.471014,-3.06267 6.194936,-4.62881 3.723923,-1.56613 8.77036,-1.56613 3.619513,0 6.403755,1.00929 2.819044,1.00928 4.907222,2.81904 2.12299,1.77495 3.58471,4.28077 1.46173,2.47101 2.36661,5.42927 l -9.466422,2.297 q -0.452439,-1.67054 -1.183302,-3.09747 -0.696061,-1.42692 -1.670545,-2.47101 -0.974484,-1.04409 -2.19259,-1.60094 -1.183302,-0.59165 -2.610226,-0.59165 -4.73321,0 -7.099815,4.03715 -2.366605,4.00234 -2.366605,11.86783 z" />
      <path
         id="path4286"
         style="font-style:normal;font-variant:normal;font-weight:bold;font-stretch:normal;font-size:71.27657318px;font-family:'Liberation Mono';-inkscape-font-specification:'Liberation Mono Bold'"
         d="m 149.91997,969.723 q 0,12.00704 -4.87242,18.16717 -4.87242,6.16014 -13.99081,6.16014 -9.11839,0 -14.02562,-6.16014 -4.87242,-6.16013 -4.87242,-18.16717 0,-12.00704 4.87242,-18.02796 4.90723,-6.02092 14.02562,-6.02092 9.11839,0 13.99081,6.02092 4.87242,6.02092 4.87242,18.02796 z m -10.4061,0 q 0,-8.1091 -2.12299,-12.04184 -2.12298,-3.93274 -6.33414,-3.93274 -4.21117,0 -6.36896,4.00234 -2.12298,3.96755 -2.12298,11.97224 0,8.00469 2.12298,12.14625 2.15779,4.10676 6.36896,4.10676 4.21116,0 6.33414,-4.10676 2.12299,-4.14156 2.12299,-12.14625 z" />
      <path
         id="path4288"
         style="font-style:normal;font-variant:normal;font-weight:bold;font-stretch:normal;font-size:71.27657318px;font-family:'Liberation Mono';-inkscape-font-specification:'Liberation Mono Bold'"
         d="m 183.99212,993.35425 0,-30.20902 q 0,-1.77495 0.0696,-3.61951 0.10441,-1.84456 0.20881,-3.37589 0.13922,-1.77496 0.27843,-3.48031 -0.48724,2.40141 -0.93968,4.62881 -0.20882,0.93968 -0.41764,1.94896 -0.20882,1.00929 -0.41763,1.98378 -0.20882,0.93968 -0.41764,1.80975 -0.20882,0.83527 -0.41764,1.49653 l -4.31557,16.28781 -7.58706,0 -4.38518,-16.28781 q -0.13921,-0.52204 -0.34803,-1.32251 -0.20882,-0.80047 -0.41763,-1.74015 -0.20882,-0.93968 -0.45244,-1.94897 -0.20882,-1.00929 -0.41764,-1.98377 -0.48724,-2.297 -1.00929,-4.87243 0.10441,1.67055 0.24362,3.48031 0.10441,1.56613 0.17402,3.41069 0.0696,1.80976 0.0696,3.58471 l 0,30.20902 -7.65667,0 0,-46.94927 12.07665,0 4.6984,17.36671 q 0.27843,0.90487 0.48725,2.26219 0.24362,1.35732 0.41763,2.64503 0.20882,1.49653 0.41764,3.13227 0.20882,-1.63574 0.45244,-3.13227 0.20882,-1.28771 0.45244,-2.61023 0.24362,-1.35731 0.48724,-2.26219 l 4.73321,-17.40151 11.65901,0 0,46.94927 -7.72627,0 z" />
      <path
         id="path4290"
         style="font-style:normal;font-variant:normal;font-weight:bold;font-stretch:normal;font-size:71.27657318px;font-family:'Liberation Mono';-inkscape-font-specification:'Liberation Mono Bold'"
         d="m 234.87413,961.23107 q 0,3.16707 -1.07889,6.02092 -1.04409,2.81904 -3.23668,4.94203 -2.19259,2.12298 -5.56848,3.37589 -3.3759,1.2181 -8.0047,1.2181 l -6.85619,0 0,16.56624 -10.26689,0 0,-46.94927 16.70545,0 q 4.6984,0 8.1439,1.04409 3.4455,1.00929 5.7077,2.92346 2.26219,1.91416 3.34109,4.6636 1.11369,2.74944 1.11369,6.19494 z m -10.33649,0.17401 q 0,-3.79353 -2.297,-5.39447 -2.2622,-1.63574 -6.82139,-1.63574 l -5.29006,0 0,14.51286 5.56848,0 q 4.594,0 6.71698,-1.87936 2.12299,-1.91417 2.12299,-5.60329 z" />
      <path
         id="path4292"
         style="font-style:normal;font-variant:normal;font-weight:bold;font-stretch:normal;font-size:71.27657318px;font-family:'Liberation Mono';-inkscape-font-specification:'Liberation Mono Bold'"
         d="m 280.64009,993.35425 -10.23208,0 -3.20188,-11.485 -15.87018,0 -3.20187,11.485 -10.26689,0 15.41773,-46.94927 11.97224,0 15.38293,46.94927 z m -21.36905,-40.61512 q -0.0696,0.34803 -0.27842,1.21811 -0.17402,0.87007 -0.45244,1.98377 -0.27843,1.11369 -0.62646,2.43621 -0.31322,1.28771 -0.66125,2.54062 l -3.75873,13.22514 11.5546,0 -3.75872,-13.22514 q -0.34803,-1.25291 -0.69606,-2.54062 -0.31323,-1.32252 -0.59166,-2.43621 -0.27842,-1.1137 -0.48724,-1.98377 -0.17401,-0.87008 -0.24362,-1.21811 z" />
      <path
         id="path4294"
         style="font-style:normal;font-variant:normal;font-weight:bold;font-stretch:normal;font-size:71.27657318px;font-family:'Liberation Mono';-inkscape-font-specification:'Liberation Mono Bold'"
         d="M 306.63794,993.35425 293.27358,958.2032 q 0.27843,2.50582 0.48725,4.80282 0.1044,0.97448 0.17401,2.01857 0.10441,1.04409 0.17402,2.05338 0.0696,0.97449 0.1044,1.87937 0.0348,0.87007 0.0348,1.56613 l 0,22.83078 -8.94438,0 0,-46.94927 11.72862,0 13.67758,36.09073 q -0.27842,-2.3318 -0.48724,-4.6288 -0.17401,-1.98378 -0.34803,-4.14156 -0.13921,-2.19259 -0.13921,-3.93274 l 0,-23.38763 8.94437,0 0,46.94927 -12.04184,0 z" />
      <path
         id="path4296"
         style="font-style:normal;font-variant:normal;font-weight:bold;font-stretch:normal;font-size:71.27657318px;font-family:'Liberation Mono';-inkscape-font-specification:'Liberation Mono Bold'"
         d="m 349.82849,974.00377 0,19.35048 -10.23208,0 0,-19.35048 -16.1486,-27.59879 10.75413,0 10.4409,19.69851 10.58012,-19.69851 10.75413,0 -16.1486,27.59879 z" />
      <path
         id="path4298"
         style="font-style:normal;font-variant:normal;font-weight:bold;font-stretch:normal;font-size:71.27657318px;font-family:'Liberation Mono';-inkscape-font-specification:'Liberation Mono Bold'"
         d="m 416.16303,993.35425 0,-46.94927 10.26689,0 0,39.01418 21.43866,0 0,7.93509 -31.70555,0 z" />
      <path
         id="path4300"
         style="font-style:normal;font-variant:normal;font-weight:bold;font-stretch:normal;font-size:71.27657318px;font-family:'Liberation Mono';-inkscape-font-specification:'Liberation Mono Bold'"
         d="m 491.82478,969.723 q 0,12.00704 -4.87242,18.16717 -4.87242,6.16014 -13.99081,6.16014 -9.11839,0 -14.02562,-6.16014 -4.87242,-6.16013 -4.87242,-18.16717 0,-12.00704 4.87242,-18.02796 4.90723,-6.02092 14.02562,-6.02092 9.11839,0 13.99081,6.02092 4.87242,6.02092 4.87242,18.02796 z m -10.4061,0 q 0,-8.1091 -2.12298,-12.04184 -2.12299,-3.93274 -6.33415,-3.93274 -4.21117,0 -6.36895,4.00234 -2.12299,3.96755 -2.12299,11.97224 0,8.00469 2.12299,12.14625 2.15778,4.10676 6.36895,4.10676 4.21116,0 6.33415,-4.10676 2.12298,-4.14156 2.12298,-12.14625 z" />
      <path
         id="path4302"
         style="font-style:normal;font-variant:normal;font-weight:bold;font-stretch:normal;font-size:71.27657318px;font-family:'Liberation Mono';-inkscape-font-specification:'Liberation Mono Bold'"
         d="m 533.55359,986.91569 q -1.32251,1.1137 -3.09747,2.36661 -1.74015,1.2529 -3.93274,2.3318 -2.15778,1.04409 -4.6984,1.74015 -2.54062,0.69606 -5.42927,0.69606 -4.90723,0 -8.56155,-1.80976 -3.61951,-1.84456 -6.02092,-5.08124 -2.40141,-3.23668 -3.58471,-7.69146 -1.1485,-4.48959 -1.1485,-9.81445 0,-5.81211 1.1485,-10.26689 1.1485,-4.48959 3.51511,-7.51745 2.4014,-3.06267 6.05572,-4.62881 3.65432,-1.56613 8.70075,-1.56613 3.48031,0 6.09053,0.93968 2.64503,0.93968 4.5592,2.67983 1.94897,1.70535 3.27148,4.10676 1.32251,2.40141 2.15779,5.32486 l -9.53603,1.87936 q -0.93968,-3.4803 -2.57542,-5.15084 -1.63574,-1.70535 -3.86314,-1.70535 -2.50581,0 -4.24596,1.04409 -1.74015,1.00929 -2.81905,3.02786 -1.07889,1.98377 -1.56613,4.97683 -0.48725,2.95826 -0.48725,6.8562 0,7.76107 2.33181,11.97223 2.3318,4.21117 7.09981,4.21117 1.32252,0 2.47101,-0.27843 1.18331,-0.31322 2.08819,-0.69606 0.93968,-0.41763 1.60093,-0.83527 0.69606,-0.45244 1.0789,-0.76567 l 0,-8.1787 -9.53603,0 0,-7.58706 18.93284,0 0,19.42008 z" />
      <path
         id="path4304"
         style="font-style:normal;font-variant:normal;font-weight:bold;font-stretch:normal;font-size:71.27657318px;font-family:'Liberation Mono';-inkscape-font-specification:'Liberation Mono Bold'"
         d="m 577.30098,969.723 q 0,12.00704 -4.87242,18.16717 -4.87243,6.16014 -13.99082,6.16014 -9.11839,0 -14.02561,-6.16014 -4.87242,-6.16013 -4.87242,-18.16717 0,-12.00704 4.87242,-18.02796 4.90722,-6.02092 14.02561,-6.02092 9.11839,0 13.99082,6.02092 4.87242,6.02092 4.87242,18.02796 z m -10.4061,0 q 0,-8.1091 -2.12299,-12.04184 -2.12298,-3.93274 -6.33415,-3.93274 -4.21116,0 -6.36895,4.00234 -2.12298,3.96755 -2.12298,11.97224 0,8.00469 2.12298,12.14625 2.15779,4.10676 6.36895,4.10676 4.21117,0 6.33415,-4.10676 2.12299,-4.14156 2.12299,-12.14625 z" />
    </g>
    <g
       id="text3336-1"
       style="font-style:normal;font-weight:normal;font-size:57.02125931px;line-height:125%;font-family:sans-serif;letter-spacing:0px;word-spacing:0px;fill:#00aa88;fill-opacity:1;stroke:none;stroke-width:1px;stroke-linecap:butt;stroke-linejoin:miter;stroke-opacity:1">
      <path
         id="path4307"
         style="font-style:normal;font-variant:normal;font-weight:bold;font-stretch:normal;font-size:71.27657318px;font-family:'Liberation Mono';-inkscape-font-specification:'Liberation Mono Bold';fill:#00aa88"
         d="m 83.170382,974.19911 q 0,7.83068 2.436211,12.07665 2.436211,4.24596 7.27383,4.24596 1.566135,0 2.853847,-0.62645 1.287711,-0.62645 2.296999,-1.74015 1.04409,-1.1485 1.809756,-2.71464 0.800465,-1.56613 1.392125,-3.41069 l 9.50122,1.80976 q -1.07889,3.44549 -2.71464,6.19493 -1.60093,2.71464 -3.82833,4.6288 -2.19259,1.87937 -5.046435,2.92346 -2.819044,1.00928 -6.368951,1.00928 -5.290059,0 -9.083587,-1.74015 -3.793529,-1.77495 -6.22974,-4.97683 -2.436211,-3.20188 -3.58471,-7.69146 -1.1485,-4.48959 -1.1485,-9.98847 0,-5.8121 1.183303,-10.26689 1.183302,-4.45478 3.619513,-7.51745 2.471014,-3.06266 6.194937,-4.6288 3.723922,-1.56614 8.770359,-1.56614 3.619514,0 6.403755,1.00929 2.819046,1.00929 4.907226,2.81905 2.12298,1.77495 3.58471,4.28077 1.46173,2.47101 2.3666,5.42927 l -9.46642,2.297 q -0.452435,-1.67055 -1.183298,-3.09747 -0.69606,-1.42693 -1.670545,-2.47102 -0.974484,-1.04409 -2.192589,-1.60094 -1.183303,-0.59165 -2.610227,-0.59165 -4.733209,0 -7.099814,4.03715 -2.366605,4.00235 -2.366605,11.86783 z" />
      <path
         id="path4309"
         style="font-style:normal;font-variant:normal;font-weight:bold;font-stretch:normal;font-size:71.27657318px;font-family:'Liberation Mono';-inkscape-font-specification:'Liberation Mono Bold';fill:#00aa88"
         d="m 152.95043,974.26872 q 0,12.00704 -4.87243,18.16717 -4.87242,6.16013 -13.99081,6.16013 -9.11839,0 -14.02561,-6.16013 -4.87242,-6.16013 -4.87242,-18.16717 0,-12.00704 4.87242,-18.02796 4.90722,-6.02093 14.02561,-6.02093 9.11839,0 13.99081,6.02093 4.87243,6.02092 4.87243,18.02796 z m -10.40611,0 q 0,-8.10911 -2.12298,-12.04185 -2.12298,-3.93274 -6.33415,-3.93274 -4.21116,0 -6.36895,4.00235 -2.12298,3.96754 -2.12298,11.97224 0,8.00469 2.12298,12.14625 2.15779,4.10675 6.36895,4.10675 4.21117,0 6.33415,-4.10675 2.12298,-4.14156 2.12298,-12.14625 z" />
      <path
         id="path4311"
         style="font-style:normal;font-variant:normal;font-weight:bold;font-stretch:normal;font-size:71.27657318px;font-family:'Liberation Mono';-inkscape-font-specification:'Liberation Mono Bold';fill:#00aa88"
         d="m 187.02258,997.89996 0,-30.20901 q 0,-1.77496 0.0696,-3.61952 0.10441,-1.84456 0.20882,-3.37589 0.13921,-1.77495 0.27843,-3.4803 -0.48725,2.40141 -0.93969,4.6288 -0.20881,0.93968 -0.41763,1.94897 -0.20882,1.00929 -0.41764,1.98377 -0.20882,0.93968 -0.41763,1.80976 -0.20882,0.83527 -0.41764,1.49653 l -4.31557,16.28781 -7.58706,0 -4.38518,-16.28781 q -0.13921,-0.52205 -0.34803,-1.32252 -0.20882,-0.80047 -0.41764,-1.74015 -0.20882,-0.93968 -0.45244,-1.94897 -0.20882,-1.00928 -0.41763,-1.98377 -0.48725,-2.297 -1.00929,-4.87242 0.10441,1.67054 0.24362,3.4803 0.10441,1.56614 0.17402,3.4107 0.0696,1.80975 0.0696,3.58471 l 0,30.20901 -7.65666,0 0,-46.94926 12.07664,0 4.69841,17.3667 q 0.27843,0.90488 0.48724,2.2622 0.24362,1.35731 0.41764,2.64503 0.20882,1.49653 0.41764,3.13227 0.20881,-1.63574 0.45244,-3.13227 0.20881,-1.28772 0.45243,-2.61023 0.24363,-1.35732 0.48725,-2.2622 l 4.73321,-17.4015 11.65901,0 0,46.94926 -7.72627,0 z" />
      <path
         id="path4313"
         style="font-style:normal;font-variant:normal;font-weight:bold;font-stretch:normal;font-size:71.27657318px;font-family:'Liberation Mono';-inkscape-font-specification:'Liberation Mono Bold';fill:#00aa88"
         d="m 237.90459,965.77678 q 0,3.16708 -1.0789,6.02092 -1.04409,2.81905 -3.23668,4.94203 -2.19259,2.12298 -5.56848,3.37589 -3.37589,1.21811 -8.00469,1.21811 l -6.85619,0 0,16.56623 -10.26689,0 0,-46.94926 16.70544,0 q 4.69841,0 8.14391,1.04409 3.4455,1.00928 5.70769,2.92345 2.2622,1.91417 3.34109,4.6636 1.1137,2.74944 1.1137,6.19494 z m -10.3365,0.17402 q 0,-3.79353 -2.297,-5.39447 -2.26219,-1.63574 -6.82139,-1.63574 l -5.29005,0 0,14.51285 5.56848,0 q 4.594,0 6.71698,-1.87936 2.12298,-1.91416 2.12298,-5.60328 z" />
      <path
         id="path4315"
         style="font-style:normal;font-variant:normal;font-weight:bold;font-stretch:normal;font-size:71.27657318px;font-family:'Liberation Mono';-inkscape-font-specification:'Liberation Mono Bold';fill:#00aa88"
         d="m 283.67055,997.89996 -10.23209,0 -3.20187,-11.48499 -15.87018,0 -3.20188,11.48499 -10.26689,0 15.41774,-46.94926 11.97224,0 15.38293,46.94926 z M 262.3015,957.28485 q -0.0696,0.34803 -0.27843,1.2181 -0.17401,0.87008 -0.45244,1.98377 -0.27842,1.1137 -0.62645,2.43621 -0.31323,1.28772 -0.66126,2.54062 l -3.75872,13.22515 11.5546,0 -3.75873,-13.22515 q -0.34803,-1.2529 -0.69606,-2.54062 -0.31322,-1.32251 -0.59165,-2.43621 -0.27842,-1.11369 -0.48724,-1.98377 -0.17402,-0.87007 -0.24362,-1.2181 z" />
      <path
         id="path4317"
         style="font-style:normal;font-variant:normal;font-weight:bold;font-stretch:normal;font-size:71.27657318px;font-family:'Liberation Mono';-inkscape-font-specification:'Liberation Mono Bold';fill:#00aa88"
         d="m 309.6684,997.89996 -13.36436,-35.15104 q 0.27842,2.50582 0.48724,4.80281 0.10441,0.97449 0.17402,2.01858 0.10441,1.04409 0.17401,2.05338 0.0696,0.97448 0.10441,1.87936 0.0348,0.87008 0.0348,1.56614 l 0,22.83077 -8.94437,0 0,-46.94926 11.72861,0 13.67759,36.09072 q -0.27842,-2.3318 -0.48724,-4.6288 -0.17402,-1.98377 -0.34803,-4.14156 -0.13921,-2.19259 -0.13921,-3.93274 l 0,-23.38762 8.94437,0 0,46.94926 -12.04184,0 z" />
      <path
         id="path4319"
         style="font-style:normal;font-variant:normal;font-weight:bold;font-stretch:normal;font-size:71.27657318px;font-family:'Liberation Mono';-inkscape-font-specification:'Liberation Mono Bold';fill:#00aa88"
         d="m 352.85895,978.54949 0,19.35047 -10.23209,0 0,-19.35047 -16.1486,-27.59879 10.75414,0 10.4409,19.6985 10.58012,-19.6985 10.75413,0 -16.1486,27.59879 z" />
      <path
         id="path4321"
         style="font-style:normal;font-variant:normal;font-weight:bold;font-stretch:normal;font-size:71.27657318px;font-family:'Liberation Mono';-inkscape-font-specification:'Liberation Mono Bold';fill:#00aa88"
         d="m 419.19349,997.89996 0,-46.94926 10.26689,0 0,39.01418 21.43865,0 0,7.93508 -31.70554,0 z" />
      <path
         id="path4323"
         style="font-style:normal;font-variant:normal;font-weight:bold;font-stretch:normal;font-size:71.27657318px;font-family:'Liberation Mono';-inkscape-font-specification:'Liberation Mono Bold';fill:#00aa88"
         d="m 494.85524,974.26872 q 0,12.00704 -4.87242,18.16717 -4.87243,6.16013 -13.99082,6.16013 -9.11839,0 -14.02561,-6.16013 -4.87242,-6.16013 -4.87242,-18.16717 0,-12.00704 4.87242,-18.02796 4.90722,-6.02093 14.02561,-6.02093 9.11839,0 13.99082,6.02093 4.87242,6.02092 4.87242,18.02796 z m -10.4061,0 q 0,-8.10911 -2.12299,-12.04185 -2.12298,-3.93274 -6.33415,-3.93274 -4.21116,0 -6.36895,4.00235 -2.12298,3.96754 -2.12298,11.97224 0,8.00469 2.12298,12.14625 2.15779,4.10675 6.36895,4.10675 4.21117,0 6.33415,-4.10675 2.12299,-4.14156 2.12299,-12.14625 z" />
      <path
         id="path4325"
         style="font-style:normal;font-variant:normal;font-weight:bold;font-stretch:normal;font-size:71.27657318px;font-family:'Liberation Mono';-inkscape-font-specification:'Liberation Mono Bold';fill:#00aa88"
         d="m 536.58405,991.46141 q -1.32252,1.11369 -3.09747,2.3666 -1.74015,1.25291 -3.93274,2.3318 -2.15779,1.04409 -4.69841,1.74015 -2.54062,0.69606 -5.42927,0.69606 -4.90722,0 -8.56154,-1.80975 -3.61951,-1.84456 -6.02092,-5.08124 -2.40141,-3.23668 -3.58471,-7.69147 -1.1485,-4.48959 -1.1485,-9.81445 0,-5.8121 1.1485,-10.26689 1.1485,-4.48959 3.5151,-7.51745 2.40141,-3.06266 6.05573,-4.6288 3.65431,-1.56614 8.70075,-1.56614 3.4803,0 6.09053,0.93969 2.64503,0.93968 4.55919,2.67983 1.94897,1.70535 3.27149,4.10675 1.32251,2.40141 2.15778,5.32486 l -9.53602,1.87937 q -0.93968,-3.4803 -2.57543,-5.15085 -1.63574,-1.70535 -3.86313,-1.70535 -2.50582,0 -4.24597,1.04409 -1.74015,1.00929 -2.81904,3.02787 -1.0789,1.98377 -1.56614,4.97683 -0.48724,2.95825 -0.48724,6.85619 0,7.76107 2.3318,11.97224 2.3318,4.21116 7.09982,4.21116 1.32251,0 2.47101,-0.27842 1.1833,-0.31323 2.08818,-0.69606 0.93968,-0.41764 1.60094,-0.83527 0.69606,-0.45244 1.07889,-0.76567 l 0,-8.17871 -9.53602,0 0,-7.58706 18.93284,0 0,19.42009 z" />
      <path
         id="path4327"
         style="font-style:normal;font-variant:normal;font-weight:bold;font-stretch:normal;font-size:71.27657318px;font-family:'Liberation Mono';-inkscape-font-specification:'Liberation Mono Bold';fill:#00aa88"
         d="m 580.33143,974.26872 q 0,12.00704 -4.87242,18.16717 -4.87242,6.16013 -13.99081,6.16013 -9.11839,0 -14.02561,-6.16013 -4.87243,-6.16013 -4.87243,-18.16717 0,-12.00704 4.87243,-18.02796 4.90722,-6.02093 14.02561,-6.02093 9.11839,0 13.99081,6.02093 4.87242,6.02092 4.87242,18.02796 z m -10.4061,0 q 0,-8.10911 -2.12298,-12.04185 -2.12299,-3.93274 -6.33415,-3.93274 -4.21116,0 -6.36895,4.00235 -2.12299,3.96754 -2.12299,11.97224 0,8.00469 2.12299,12.14625 2.15779,4.10675 6.36895,4.10675 4.21116,0 6.33415,-4.10675 2.12298,-4.14156 2.12298,-12.14625 z" />
    </g>
  </g>
</svg>
